# xmcd
#
# Track frame offsets:
#	150
#	20539
#	37662
#	55407
#	78691
#	101434
#	130695
#	156121
#
# Disc length: 2411 seconds
#
# Revision: 1
# Processed by: cddbd v1.5.2PL0 Copyright (c) Steve Scherf et al.
# Submitted via: EZCDAudioConverter 1.3.4.1
#
DISCID=59096908
DTITLE=Bill Callahan - Dream River
DYEAR=2013
DGENRE=
TTITLE0=The Sing
TTITLE1=Javelin Unlanding
TTITLE2=Small Plane
TTITLE3=Spring
TTITLE4=Ride My Arrow
TTITLE5=Summer Painter
TTITLE6=Seagull
TTITLE7=Winter Road
EXTD=
EXTT0=
EXTT1=
EXTT2=
EXTT3=
EXTT4=
EXTT5=
EXTT6=
EXTT7=
PLAYORDER=
